<svg xmlns="http://www.w3.org/2000/svg"  viewBox="0 0 100 100" width="100px" height="100px"><path fill="#3070b7" d="M55,46.474l3.457,2.184c0.331,0.209,0.748,0.199,1.069-0.027L79,36.368"/><path fill="#3070b7" d="M55,44.368V29h22c1.105,0,2,0.943,2,2.105v3.158v5.263v27.368C79,68.057,78.105,69,77,69H55V49.632 V44.368z"/><ellipse cx="35" cy="49.5" fill="#3070b7" rx="4" ry="6.5"/><path fill="#3070b7" d="M17,23v52l38,7V16L17,23z M35,61c-4.971,0-9-5.149-9-11.5c0-6.351,4.029-11.5,9-11.5s9,5.149,9,11.5 C44,55.851,39.971,61,35,61z"/><path fill="#1f212b" d="M55,83c-0.06,0-0.121-0.005-0.181-0.017l-38-7C16.344,75.896,16,75.482,16,75V23 c0-0.482,0.344-0.896,0.819-0.983l38-7c0.293-0.054,0.594,0.025,0.821,0.215C55.868,15.421,56,15.703,56,16v66 c0,0.297-0.132,0.579-0.36,0.769C55.459,82.919,55.232,83,55,83z M18,74.167l36,6.631V17.201l-36,6.631V74.167z"/><path fill="#1f212b" d="M51.5,77c-0.276,0-0.5-0.224-0.5-0.5v-43c0-0.276,0.224-0.5,0.5-0.5s0.5,0.224,0.5,0.5v43	C52,76.776,51.776,77,51.5,77z"/><path fill="#1f212b" d="M51.5,31c-0.276,0-0.5-0.224-0.5-0.5v-4c0-0.276,0.224-0.5,0.5-0.5s0.5,0.224,0.5,0.5v4	C52,30.776,51.776,31,51.5,31z"/><path fill="#1f212b" d="M51.5,24c-0.276,0-0.5-0.224-0.5-0.5v-2c0-0.276,0.224-0.5,0.5-0.5s0.5,0.224,0.5,0.5v2	C52,23.776,51.776,24,51.5,24z"/><path fill="#1f212b" d="M35,62c-5.514,0-10-5.607-10-12.5S29.486,37,35,37s10,5.607,10,12.5S40.514,62,35,62z M35,38	c-4.962,0-9,5.159-9,11.5S30.038,61,35,61s9-5.159,9-11.5S39.962,38,35,38z"/><path fill="#1f212b" d="M35,57c-2.757,0-5-3.364-5-7.5s2.243-7.5,5-7.5s5,3.364,5,7.5S37.757,57,35,57z M35,43	c-2.206,0-4,2.916-4,6.5s1.794,6.5,4,6.5s4-2.916,4-6.5S37.206,43,35,43z"/><path fill="#1f212b" d="M58.983,49.818c-0.357,0-0.72-0.094-1.041-0.287l-3.458-2.074c-0.474-0.284-0.627-0.898-0.343-1.372 c0.284-0.474,0.898-0.628,1.372-0.343l3.458,2.074l19.515-11.675c0.474-0.282,1.088-0.129,1.372,0.345 c0.283,0.474,0.129,1.088-0.345,1.372L60.04,49.507C59.732,49.713,59.361,49.818,58.983,49.818z"/><path fill="#1f212b" d="M77,69H59c-0.552,0-1-0.448-1-1s0.448-1,1-1h18c0.551,0,1-0.449,1-1V32c0-0.551-0.449-1-1-1H59 c-0.552,0-1-0.448-1-1s0.448-1,1-1h18c1.654,0,3,1.346,3,3v34C80,67.654,78.654,69,77,69z"/><path fill="#1f212b" d="M75.5,65c-0.276,0-0.5-0.224-0.5-0.5v-13c0-0.276,0.224-0.5,0.5-0.5s0.5,0.224,0.5,0.5v13	C76,64.776,75.776,65,75.5,65z"/><path fill="#1f212b" d="M75.5,49c-0.276,0-0.5-0.224-0.5-0.5v-2c0-0.276,0.224-0.5,0.5-0.5s0.5,0.224,0.5,0.5v2	C76,48.776,75.776,49,75.5,49z"/></svg>