<?xml version="1.0" ?><svg id="Layer_1" style="enable-background:new 0 0 64 64;" version="1.1" viewBox="0 0 64 64" xml:space="preserve" xmlns="http://www.w3.org/2000/svg" xmlns:xlink="http://www.w3.org/1999/xlink"><style type="text/css">
	.st0{fill:none;stroke:#730000;stroke-width:2;stroke-linecap:round;stroke-linejoin:round;stroke-miterlimit:10;}
</style><g><g><path class="st0" d="M28.99,39.59c-0.26-1.06-0.4-2.17-0.4-3.31c0-4.99,2.61-9.37,6.54-11.86c0.26,1.06,0.4,2.18,0.4,3.32    C35.53,32.73,32.92,37.1,28.99,39.59z"/><path class="st0" d="M62.75,32.7c0.06,0.31,0.1,0.63,0.14,0.95"/><path class="st0" d="M62.94,38.53c-1.13,10.23-9.8,18.19-20.32,18.19c-7.03,0-13.25-3.55-16.93-8.96    c2.23-0.47,4.34-1.29,6.23-2.43c6.01-3.54,10.04-10.1,10.04-17.59c0-1.13-0.09-2.24-0.28-3.31l0.93,1.13l2.21-2.7l0.31-0.38    l1.34-1.64l2.22-2.71c0.31-0.34,0.54-0.72,0.68-1.16c5.37,1.88,9.71,5.93,11.98,11.11"/><path class="st0" d="M35.53,27.74c0,4.99-2.61,9.37-6.54,11.85c-0.26-1.06-0.4-2.17-0.4-3.31c0-4.99,2.61-9.37,6.54-11.86    C35.39,25.48,35.53,26.6,35.53,27.74z"/><path class="st0" d="M56.63,36.27c0,7.74-6.28,14.02-14.02,14.02c-4.3,0-8.14-1.92-10.7-4.96c6.01-3.54,10.04-10.1,10.04-17.59    c0-1.13-0.09-2.24-0.28-3.31l0.93,1.13l2.21-2.7l0.31-0.38C51.67,23.67,56.63,29.4,56.63,36.27z"/></g><g><path class="st0" d="M40.09,22.48c-1.8,0.33-3.47,0.99-4.96,1.93c-3.93,2.49-6.54,6.87-6.54,11.86c0,1.14,0.14,2.25,0.4,3.31    c-1.8,1.15-3.87,1.89-6.1,2.1c-0.48-1.73-0.73-3.54-0.73-5.42c0-7.5,4.03-14.04,10.04-17.6c1.14-0.67,2.36-1.25,3.64-1.7    c0.15,0.44,0.39,0.82,0.69,1.16l1.45,1.78L40.09,22.48z"/><path class="st0" d="M4.14,38.53c-1.95-3.13-3.08-6.83-3.08-10.8c0-11.3,9.16-20.46,20.45-20.46c3.81,0,7.36,1.04,10.41,2.84    c0.45,0.26,0.88,0.55,1.3,0.84"/><path class="st0" d="M7.26,42.4c-0.24-0.23-0.47-0.47-0.7-0.71"/><path class="st0" d="M36.36,13.69c-0.46,0.6-0.72,1.33-0.72,2.12c0,0.41,0.07,0.8,0.2,1.16c-1.28,0.45-2.5,1.02-3.64,1.7    c-2.57-3.04-6.4-4.95-10.69-4.95c-7.74,0-14.02,6.27-14.02,14.02c0,7.74,6.28,14.02,14.02,14.02c0.47,0,0.93-0.02,1.38-0.07    c2.23-0.22,4.31-0.95,6.1-2.1c3.93-2.48,6.54-6.86,6.54-11.85c0-1.14-0.14-2.26-0.4-3.32c1.49-0.94,3.16-1.61,4.96-1.93l1.59,1.94    c0.19,1.07,0.28,2.18,0.28,3.31c0,7.49-4.03,14.05-10.04,17.59c-1.89,1.14-4,1.96-6.23,2.43c-1.35,0.28-2.75,0.43-4.18,0.43    c-4.04,0-7.81-1.17-10.98-3.19"/><path class="st0" d="M22.16,36.27c0,1.88,0.26,3.69,0.73,5.42c-0.45,0.05-0.91,0.07-1.38,0.07c-7.74,0-14.02-6.28-14.02-14.02    c0-7.75,6.28-14.02,14.02-14.02c4.29,0,8.12,1.91,10.69,4.95C26.18,22.23,22.16,28.77,22.16,36.27z"/><path class="st0" d="M35.53,27.74c0,4.99-2.61,9.37-6.54,11.85c-0.26-1.06-0.4-2.17-0.4-3.31c0-4.99,2.61-9.37,6.54-11.86    C35.39,25.48,35.53,26.6,35.53,27.74z"/><path class="st0" d="M22.16,36.27c0,1.88,0.26,3.69,0.73,5.42c-0.45,0.05-0.91,0.07-1.38,0.07c-7.74,0-14.02-6.28-14.02-14.02    c0-7.75,6.28-14.02,14.02-14.02c4.29,0,8.12,1.91,10.69,4.95C26.18,22.23,22.16,28.77,22.16,36.27z"/><path class="st0" d="M35.53,27.74c0,4.99-2.61,9.37-6.54,11.85c-0.26-1.06-0.4-2.17-0.4-3.31c0-4.99,2.61-9.37,6.54-11.86    C35.39,25.48,35.53,26.6,35.53,27.74z"/></g><g><path class="st0" d="M49.58,15.81c0,0.41-0.07,0.8-0.2,1.16c-0.15,0.44-0.38,0.82-0.68,1.16l-2.22,2.71l-1.34,1.64l-0.31,0.38    l-2.21,2.7l-0.93-1.13l-1.59-1.94l-2.11-2.57l-1.45-1.78c-0.31-0.34-0.55-0.72-0.69-1.16c-0.13-0.36-0.2-0.75-0.2-1.16    c0-0.79,0.27-1.53,0.72-2.12c0.64-0.82,1.65-1.36,2.77-1.36c1.92,0,3.48,1.57,3.48,3.48c0-1.91,1.57-3.48,3.48-3.48    C48.02,12.33,49.58,13.9,49.58,15.81z"/></g></g></svg>